<svg width="48" height="38" viewBox="0 0 48 38" fill="none" xmlns="http://www.w3.org/2000/svg">
<path fill-rule="evenodd" clip-rule="evenodd" d="M7.28884 37.9879H9.03762C9.07899 37.9655 9.11658 37.9379 9.14751 37.9047L9.18434 37.8652L13.0216 33.7473C13.0821 33.6819 13.1248 33.6026 13.1387 33.5174L13.177 33.2823L13.5125 31.2211C13.5276 31.1237 13.529 31.0171 13.5125 30.9154C13.4024 30.239 9.42309 29.5285 9.53317 30.2049L10.6257 33.1095L8.13179 37.0822C8.13179 37.0822 7.93341 36.9711 7.54382 37.0121C7.15419 37.053 6.95934 37.3073 7.00215 37.6255C7.02298 37.7806 7.13091 37.9124 7.28884 37.9879" fill="#FAB550"/>
<path fill-rule="evenodd" clip-rule="evenodd" d="M13.2116 33.0686L13.5124 31.2211C13.5275 31.1237 13.5289 31.0171 13.5124 30.9154C13.4023 30.239 12.598 29.7592 11.7159 29.8436C11.1242 29.9002 10.4999 30.119 10.1858 30.461C11.0789 32.5952 13.2116 33.0686 13.2116 33.0686" fill="#442255"/>
<path fill-rule="evenodd" clip-rule="evenodd" d="M23.9306 29.0359C21.5502 28.7467 20.3165 29.4305 20.3211 31.1625C20.4893 32.3996 22.0787 33.5012 22.1757 34.7232C21.0287 36.6085 20.5291 37.1197 20.5291 37.1197C20.5291 37.1197 20.3527 37.0593 20.0785 37.067C19.5111 37.0829 19.283 37.6761 19.7626 37.9704H21.2268C21.4456 37.9704 21.652 37.8934 21.7871 37.7616C22.35 37.2118 23.8654 35.737 24.3681 35.3C24.6332 35.0696 24.696 34.7416 24.5292 34.4622C24.268 34.0249 24.1083 33.4614 24.1536 33.0341C24.3263 31.8402 24.8837 31.9712 25.831 31.1162C26.3216 30.1552 25.2325 29.0652 23.9306 29.0359" fill="#FAB550"/>
<path fill-rule="evenodd" clip-rule="evenodd" d="M24.1539 33.0342C24.1683 32.9341 24.1858 32.844 24.2057 32.7612C23.2804 32.1956 22.2959 31.4477 22.0447 30.7815C22.0394 30.7871 22.0359 30.7908 22.0359 30.7908C22.328 31.8126 23.0206 32.5899 24.173 33.4965C24.1464 33.3337 24.1388 33.1764 24.1539 33.0342" fill="#442255"/>
<path fill-rule="evenodd" clip-rule="evenodd" d="M33.3704 27.034C33.3413 27.0131 33.2956 27.0142 33.2683 27.0365L33.2681 27.0366C32.9107 27.3286 32.5016 27.5717 32.0533 27.7414C31.6055 27.9123 31.125 28.0149 30.6326 28.062C30.3867 28.087 30.1378 28.0996 29.8873 28.1028C29.6368 28.1068 29.3847 28.1025 29.1313 28.0913C28.878 28.0819 28.6233 28.0659 28.3672 28.0469C28.111 28.0285 27.8534 28.0065 27.594 27.983C27.0748 27.9379 26.5511 27.8612 26.0112 27.8091C25.8423 27.7933 25.6714 27.7818 25.4991 27.7749C24.966 27.4053 24.281 27.1605 23.5119 27.1092C23.4732 27.1066 23.4344 27.1045 23.3953 27.1028C21.383 27.0188 19.2917 27.1345 17.0609 27.5248C16.5472 27.6147 16.0118 27.6036 15.5064 27.4894C14.671 27.3006 13.7536 27.2312 12.7834 27.2389C12.6213 27.2402 10.6198 25.5974 9.42494 25.1789C9.33827 25.1426 9.2437 25.1154 9.14238 25.1006C9.12021 25.0963 9.0977 25.0935 9.075 25.0914C8.18325 24.9683 7.2915 24.9864 6.39975 25.1466C6.08477 25.2032 5.84679 25.393 5.76146 25.6323C5.68029 25.8599 5.4527 26.0398 5.15835 26.1087L3.6137 26.4706C3.40014 26.5207 3.27348 26.6889 3.32371 26.8557C3.51415 27.4886 4.18319 27.9699 5.01824 28.0789C5.67234 28.1642 6.26817 28.194 6.86217 28.194C7.29668 28.1939 7.70767 28.3452 7.97515 28.6078L9.2053 30.2059C10.182 31.6195 12.0118 32.5518 14.0606 32.7105L14.0611 32.7106L14.0308 35.7248L14.0294 35.85C14.0282 35.9796 14.0831 36.104 14.181 36.2052C14.2789 36.3064 15.239 36.7918 15.9256 36.7918C17.112 36.7918 16.7355 35.8694 16.7355 35.8694L15.49 35.5516L16.3131 32.6051C16.9273 32.5064 17.5259 32.3522 18.0949 32.1426C19.4291 31.6511 20.7728 31.3164 22.177 31.0435C22.8722 32.1534 25.2344 33.3893 25.8565 33.6164C26.6064 33.8903 27.3736 33.9329 27.3736 33.9329C27.6731 34.5496 27.9283 35.6392 28.0332 36.1249C28.0681 36.2869 28.1667 36.4365 28.3159 36.5541C28.6323 36.8036 29.036 37.1471 29.3221 37.2275C30.2153 37.4786 30.7568 36.7338 30.3754 36.3798L29.4938 35.9084C29.4938 35.9084 29.3589 33.4843 29.37 33.0464C29.3809 32.6134 28.9377 32.2579 28.3736 32.236C27.786 32.2132 27.431 32.1866 27.0087 31.7577C26.5834 31.3262 26.5935 30.8289 26.6092 30.3179V30.3179L26.6439 30.0157C26.6895 29.6198 26.6198 29.2349 26.4574 28.8811C26.8098 28.8698 27.167 28.8614 27.527 28.8628C27.7936 28.8628 28.0621 28.8615 28.3325 28.8566C28.6029 28.8509 28.8753 28.8404 29.1486 28.8237C29.422 28.8053 29.6965 28.7805 29.9704 28.7446C30.2441 28.708 30.5172 28.661 30.7861 28.5999C31.3224 28.4756 31.8439 28.2919 32.291 28.0346C32.5143 27.9062 32.7193 27.762 32.9022 27.6055C33.0836 27.4478 33.2451 27.2797 33.383 27.1028C33.4 27.0809 33.3956 27.0521 33.3704 27.034" fill="#FAB550"/>
<path fill-rule="evenodd" clip-rule="evenodd" d="M6.17022 25.876C6.12324 25.9185 6.09351 25.9785 6.09351 26.0454C6.09351 26.108 6.11922 26.1649 6.16097 26.2068C6.20512 26.251 6.57661 26.0653 6.57661 26.0653C6.57661 26.0653 6.3969 25.8532 6.17022 25.876" fill="#442255"/>
<path fill-rule="evenodd" clip-rule="evenodd" d="M3.77601 26.5444H3.44738C3.34017 26.6215 3.28855 26.7387 3.3237 26.8553C3.36603 26.9959 3.4322 27.129 3.51849 27.2522L3.95634 26.8311C3.98886 26.7999 4.00657 26.7611 4.00657 26.7211C4.00657 26.6235 3.90334 26.5444 3.77601 26.5444" fill="#442255"/>
<path fill-rule="evenodd" clip-rule="evenodd" d="M7.49728 25.6631L7.67771 26.3856C7.71114 26.5194 7.79182 26.6436 7.911 26.7446L8.37089 27.1343C8.67773 27.3944 9.23601 27.3065 9.38436 26.9747C9.44273 26.8442 9.53127 26.7228 9.64576 26.6164C9.90299 26.3773 10.0232 26.0687 9.97922 25.7606L9.95763 25.6099C9.92971 25.4144 9.63398 25.2725 9.11539 25.1755C8.71326 25.1002 8.21205 25.1635 7.85828 25.2309C7.60727 25.2788 7.44863 25.4683 7.49728 25.6631" fill="#442255"/>
<path fill-rule="evenodd" clip-rule="evenodd" d="M19.152 29.1877C19.152 28.6128 18.5442 28.1467 17.7943 28.1467C17.0446 28.1467 16.4368 28.6128 16.4368 29.1877C16.4368 29.7626 17.0446 30.2287 17.7943 30.2287C18.5442 30.2287 19.152 29.7626 19.152 29.1877" fill="#442255"/>
<path fill-rule="evenodd" clip-rule="evenodd" d="M11.776 29.1693C12.0354 29.1693 12.2456 29.0082 12.2456 28.8095C12.2456 28.6108 12.0354 28.4497 11.776 28.4497C11.5166 28.4497 11.3064 28.6108 11.3064 28.8095C11.3064 29.0082 11.5166 29.1693 11.776 29.1693" fill="#442255"/>
<path fill-rule="evenodd" clip-rule="evenodd" d="M15.956 27.8353C15.956 27.7403 15.9421 27.6479 15.9166 27.5587C15.7784 27.5429 15.6412 27.52 15.5063 27.4895C14.6755 27.3017 13.7636 27.2321 12.7993 27.239C12.6771 27.4172 12.6077 27.62 12.6077 27.8353C12.6077 28.5443 13.3572 29.119 14.2818 29.119C15.2064 29.119 15.956 28.5443 15.956 27.8353" fill="#442255"/>
<path fill-rule="evenodd" clip-rule="evenodd" d="M19.2878 27.2199C19.4209 28.427 20.74 29.3751 22.3486 29.3751C23.7593 29.3751 24.9472 28.6459 25.3081 27.6524C24.8062 27.3519 24.1921 27.1546 23.5119 27.1092C23.4732 27.1066 23.4343 27.1045 23.3953 27.1028C22.0666 27.0474 20.703 27.0797 19.2878 27.2199" fill="#442255"/>
<path fill-rule="evenodd" clip-rule="evenodd" d="M12.7222 27.2503L8.87336 29.835C8.83453 29.8611 8.77438 29.8537 8.74814 29.8196L8.47554 29.4655C8.45547 29.4394 8.46237 29.406 8.49201 29.386L12.1884 26.8854C12.2188 26.8649 12.2642 26.8643 12.2955 26.8841L12.7204 27.1541C12.7595 27.1789 12.7603 27.2247 12.7222 27.2503" fill="#FA570E"/>
<path fill-rule="evenodd" clip-rule="evenodd" d="M16.6616 30.9273C16.6579 30.897 16.6532 30.8707 16.6483 30.8371L16.6421 30.7953L16.639 30.7743C16.6379 30.7711 16.6393 30.7664 16.636 30.7646L16.6227 30.7617L16.5284 30.7413C16.4929 30.7342 16.458 30.7253 16.4228 30.7171C16.3525 30.7003 16.283 30.6814 16.2137 30.6617C15.9366 30.5817 15.6699 30.4792 15.4011 30.3756C15.309 30.3422 15.278 30.3876 15.3634 30.4282C15.6191 30.5483 15.882 30.666 16.1633 30.7578C16.2338 30.7804 16.3049 30.8021 16.3774 30.8214C16.4138 30.8309 16.4499 30.8408 16.4869 30.8491L16.4994 30.852L16.5 30.8523L16.5008 30.8527C16.5012 30.853 16.5007 30.8538 16.5008 30.8547L16.5108 30.9364L16.5162 31.0208C16.5191 31.077 16.5195 31.1335 16.5184 31.19C16.5084 31.6438 16.3878 32.0952 16.2937 32.551C16.2822 32.6159 16.3484 32.6252 16.3695 32.5624C16.5124 32.1171 16.6612 31.6629 16.6722 31.192C16.6733 31.1334 16.6726 31.0745 16.6688 31.0156L16.6616 30.9273Z" fill="#442255"/>
<path fill-rule="evenodd" clip-rule="evenodd" d="M14.707 32.2911C14.4574 32.4324 14.2164 32.5606 13.9563 32.6903C13.9386 32.7005 13.9646 32.7481 13.9872 32.7446C14.2982 32.6842 14.5801 32.5347 14.7633 32.3329C14.7779 32.3151 14.7291 32.2802 14.707 32.2911" fill="#442255"/>
<path fill-rule="evenodd" clip-rule="evenodd" d="M26.1806 28.4351C26.2391 28.6536 26.3451 28.8585 26.4979 29.0484C26.51 29.0615 26.5726 29.0425 26.5698 29.0266C26.5115 28.808 26.4059 28.6031 26.2534 28.413C26.2391 28.3975 26.1771 28.4163 26.1806 28.4351" fill="#442255"/>
<path fill-rule="evenodd" clip-rule="evenodd" d="M22.0087 30.4833C22.0018 30.4638 21.9346 30.4662 21.9316 30.4872C21.9157 30.6597 21.9568 30.8359 22.0451 30.9963C21.7311 31.0257 21.4238 31.0867 21.1254 31.1623C20.806 31.244 20.4961 31.3442 20.1943 31.4561C20.1521 31.4729 20.1769 31.5209 20.2226 31.5112C20.5424 31.4358 20.8586 31.3547 21.1739 31.2742C21.4756 31.198 21.776 31.1207 22.0821 31.0583C22.1409 31.1496 22.2153 31.2347 22.304 31.3095C22.327 31.3275 22.3811 31.2975 22.3686 31.2754C22.2024 31.0204 22.085 30.7624 22.0087 30.4833" fill="#442255"/>
<path fill-rule="evenodd" clip-rule="evenodd" d="M8.05371 27.8439C7.91265 27.969 7.72571 28.0497 7.52617 28.1006C7.32582 28.1513 7.11082 28.1735 6.89166 28.1669C6.86063 28.1675 6.84808 28.2182 6.87978 28.2255C7.10307 28.2723 7.34843 28.2698 7.57449 28.2125C7.79935 28.1566 8.00837 28.0389 8.11865 27.8775C8.13665 27.8499 8.0789 27.8241 8.05371 27.8439" fill="#442255"/>
<path fill-rule="evenodd" clip-rule="evenodd" d="M28.2016 33.582C27.8449 33.7023 27.489 33.7932 27.1093 33.8607C27.0827 33.8667 27.0881 33.9181 27.1167 33.9197C27.5185 33.9304 27.9286 33.826 28.2423 33.6333C28.2682 33.6162 28.2323 33.573 28.2016 33.582" fill="#442255"/>
<path fill-rule="evenodd" clip-rule="evenodd" d="M25.5502 20.9702L25.5324 21.0186C24.614 23.5228 23.2739 26.5797 20.7048 29.0566C19.5689 30.1516 18.2396 31.0866 16.8603 31.7605C15.4651 32.4423 14.0846 32.8233 12.8678 32.8627C10.9767 32.807 9.65382 31.8816 9.0298 30.1824C9.02467 30.1685 9.01768 30.1487 9.00992 30.1262C8.97344 30.0208 8.82839 29.9373 8.68225 29.9378C8.52917 29.9382 8.43431 30.0302 8.47261 30.1406C8.47855 30.1577 8.48387 30.1727 8.48794 30.1838C8.85559 31.1887 9.46468 31.9358 10.3005 32.4061C10.9779 32.7874 11.7875 32.9787 12.7097 32.9759C12.7732 32.9757 12.8373 32.9745 12.9018 32.9725C12.9661 32.9743 13.0304 32.9752 13.0956 32.975C15.7908 32.9667 18.6439 31.5431 21.0452 29.3034C23.7603 26.7711 25.0752 23.7886 26.0278 21.1911L26.0491 21.1329L25.5502 20.9702Z" fill="#FA570E"/>
<path fill-rule="evenodd" clip-rule="evenodd" d="M8.67036 29.5686C8.71302 29.7281 8.71795 29.8819 8.68568 30.0429C8.68199 30.0543 8.61491 30.0591 8.60868 30.0481C8.5392 29.8917 8.5335 29.7254 8.59211 29.5664C8.59853 29.553 8.66523 29.5552 8.67036 29.5686" fill="#FBC06B"/>
<path fill-rule="evenodd" clip-rule="evenodd" d="M32.6567 35.6231L31.6586 37.9703L24.8662 36.9607C25.1838 36.0103 26.7409 36.216 27.588 35.9468C28.4352 35.6775 28.7627 35.3589 28.8836 35.0356C29.7968 32.5915 33.215 34.0824 32.6567 35.6231" fill="#442255"/>
<path fill-rule="evenodd" clip-rule="evenodd" d="M44.2927 34.5358L45.3906 35.9757L42.8082 37.5922C42.419 37.8367 41.9314 37.9702 41.4284 37.9702H39.2434C39.2598 37.22 40.1369 37.2422 40.6414 36.655C41.1664 36.0441 41.1684 35.5476 40.9063 35.0357C39.9728 33.2127 43.5394 33.164 44.2927 34.5358" fill="#442255"/>
<path fill-rule="evenodd" clip-rule="evenodd" d="M40.9612 24.9276L39.7799 20.3031L40.5731 18.58C41.0774 17.4964 41.1159 16.3174 40.683 15.2157L40.497 14.7481C40.2327 14.0839 39.2994 13.723 38.4459 13.9554C37.0847 14.3261 35.131 14.8584 33.8219 15.2164C33.0349 15.4316 32.6001 16.0774 32.8267 16.6941L33.8986 19.6118L28.3679 35.5508L32.3091 36.5317L36.7127 26.9659L40.9681 35.8071L44.5597 34.7753L40.9612 24.9276Z" fill="#B67CED"/>
<path fill-rule="evenodd" clip-rule="evenodd" d="M27.1781 17.6395C26.5347 17.4593 25.8142 17.6428 25.4398 18.0826C25.0642 18.5241 24.6053 19.0452 24.316 19.309C23.8915 19.6963 23.7037 19.9478 23.8157 20.1628C23.9278 20.3778 24.2503 20.9442 24.2503 20.9442C24.2503 20.9442 24.2305 21.713 25.055 21.7383H25.0847C25.116 21.796 25.1723 21.8387 25.257 21.8665C25.4548 21.9313 25.6891 21.8603 25.9093 21.7383H26.2545C26.7075 21.7383 27.1095 21.1044 27.1095 21.1044C27.2108 20.9236 27.178 20.7948 27.0843 20.7203C27.2622 20.5457 27.4132 20.3919 27.4649 20.3224C27.4811 20.3007 27.4941 20.2778 27.5041 20.254L28.057 19.0851C28.3339 18.4998 27.9407 17.8532 27.1781 17.6395" fill="#FAB550"/>
<path fill-rule="evenodd" clip-rule="evenodd" d="M24.5358 19.2447C25.4562 19.1245 26.9248 19.6383 27.5084 20.0441C27.5578 20.0784 27.6364 20.0625 27.6568 20.0139L27.7537 19.7826C27.764 19.758 27.7561 19.7312 27.7326 19.7126C27.511 19.5378 26.3323 18.6807 24.7542 18.8705C24.7317 18.8733 24.7111 18.8825 24.6968 18.896L24.4479 19.1322C24.3945 19.1828 24.4522 19.2556 24.5358 19.2447" fill="#FA570E"/>
<path fill-rule="evenodd" clip-rule="evenodd" d="M32.5243 4.80103V4.80103L31.0334 5.43439C29.9327 5.90199 29.1709 6.72944 28.9646 7.68126L27.7739 12.443L25.3883 17.2072C25.3427 17.2983 25.3809 17.3986 25.4749 17.4577L24.9944 18.466L27.9669 19.4378L28.5467 18.516C28.6784 18.5414 28.8188 18.4927 28.8783 18.395L31.8494 13.5259C31.9068 13.427 31.9538 13.3148 31.9797 13.2034L31.9924 13.1492L32.9202 9.31759C33.2852 7.81046 33.149 6.25715 32.5243 4.80103" fill="#F2D9DD"/>
<path fill-rule="evenodd" clip-rule="evenodd" d="M30.5998 7.19631C29.8658 8.47179 30.1488 14.2192 29.0637 18.0913L30.9802 14.9505L31.8493 13.5261C31.9068 13.4271 31.9538 13.315 31.9798 13.2035L31.9924 13.1494L32.9756 9.06943C33.1047 8.53652 33.1216 6.56687 32.4887 6.32546C31.9197 6.10839 31.2006 6.1523 30.5998 7.19631" fill="#442255"/>
<path fill-rule="evenodd" clip-rule="evenodd" d="M47.6874 19.3985C47.4377 18.8639 46.8638 18.4567 46.7461 18.0435C46.2439 16.2808 43.3987 16.7078 43.8064 18.1864C43.9233 18.6058 44.0154 19.9189 44.1789 20.3525C44.4328 21.0261 44.86 21.5187 45.2338 21.8214C45.3765 21.937 45.605 21.9358 45.7364 21.8179C46.128 22.1027 46.7486 22.2062 47.0114 21.9683C47.0118 21.9679 47.0122 21.9675 47.0127 21.9671C47.0141 21.9659 47.0156 21.9648 47.017 21.9636C47.1145 21.885 47.1694 21.7566 47.1345 21.5848C47.0563 21.36 47.0729 21.3969 47.0729 21.3969C47.3141 21.5002 47.6034 21.4955 47.5748 20.8695C47.7649 20.8502 47.7184 20.5482 47.6754 20.3949C47.8618 20.2266 47.937 19.9331 47.6874 19.3985" fill="#FAB550"/>
<path fill-rule="evenodd" clip-rule="evenodd" d="M36.7092 26.974L37.5263 28.6971L39.8364 20.5324L39.8028 20.2539L36.7092 26.974Z" fill="#442255"/>
<path fill-rule="evenodd" clip-rule="evenodd" d="M35.7364 4.00854L40.4466 5.48743C41.3776 5.80882 41.8499 6.61237 41.5458 7.35974C40.8009 9.19016 39.3837 11.5744 40.7081 15.1454C38.0057 14.6885 35.232 16.9364 32.8748 16.9114C30.8466 12.3072 29.6051 10.4341 29.8708 7.40803C30.0061 5.86723 31.893 4.87433 33.8113 4.40406C35.2654 4.04765 35.7364 4.00854 35.7364 4.00854" fill="#F2D9DD"/>
<path fill-rule="evenodd" clip-rule="evenodd" d="M31.1648 1.29219C31.1648 1.29219 30.8281 1.25037 30.925 1.08729C31.2346 0.566328 32.6928 0.882356 32.3778 1.22531C32.3778 1.22531 31.7188 1.50135 31.1648 1.29219" fill="#442255"/>
<path fill-rule="evenodd" clip-rule="evenodd" d="M34.5274 4.36522C34.1856 4.82404 33.8459 5.28487 33.537 5.75929C33.462 5.87873 33.3852 5.99755 33.3119 6.11765L33.1017 6.48177L32.9104 6.85236C32.8503 6.97698 32.7967 7.1035 32.7397 7.22908C32.3115 8.24173 32.1413 9.31662 32.2007 10.3784C32.2087 10.5112 32.2127 10.6442 32.2243 10.7767L32.2701 11.1737C32.2781 11.2398 32.2844 11.3061 32.294 11.372L32.3252 11.5697C32.345 11.7016 32.3719 11.8327 32.3951 11.9642C32.4975 12.489 32.6287 13.0101 32.7831 13.5269C33.0937 14.5597 33.4941 15.5775 34.014 16.5585C34.1928 16.8874 34.254 16.867 34.0869 16.5364C33.5923 15.5519 33.2118 14.5344 32.9149 13.5041C32.7673 12.9887 32.6415 12.4696 32.5427 11.9476C32.5205 11.8169 32.4943 11.6865 32.4753 11.5556L32.4452 11.3592C32.4358 11.2937 32.4299 11.228 32.422 11.1624L32.3776 10.7688C32.3662 10.6374 32.3624 10.5058 32.3544 10.3744C32.2957 9.32279 32.4571 8.2642 32.8678 7.26047C32.9228 7.13593 32.9741 7.01043 33.0319 6.88662L33.2161 6.51801L33.4189 6.15496C33.4898 6.03497 33.5641 5.91611 33.6364 5.7966C33.935 5.32159 34.2642 4.8576 34.5949 4.39419C34.7808 4.13192 34.7221 4.10659 34.5274 4.36522" fill="#442255"/>
<path fill-rule="evenodd" clip-rule="evenodd" d="M35.6097 1.89746L35.9805 4.44401C35.9812 4.44933 35.982 4.45465 35.9827 4.45998C36.079 5.17078 35.567 5.84895 34.7265 6.15777L32.9992 6.79239C32.7938 6.43032 32.6888 6.03367 32.6927 5.63478L32.7132 3.58241L35.6097 1.89746Z" fill="#FAB550"/>
<path fill-rule="evenodd" clip-rule="evenodd" d="M34.3269 3.39122C34.3977 3.17 34.6513 2.65911 34.7078 2.42236L32.7133 3.58262L32.7009 4.82417C33.7268 4.49394 34.2069 3.76599 34.3269 3.39122" fill="#442255"/>
<path fill-rule="evenodd" clip-rule="evenodd" d="M35.6053 1.79483C35.7418 2.73174 34.1117 3.74818 33.0298 3.95967C32.0799 4.14538 31.5242 3.81739 31.3575 3.32197C31.1195 2.6145 31.0449 2.24528 31.0933 1.41121C31.1263 0.844192 31.7191 0.424406 32.3213 0.372819L34.1591 0.215523C34.8226 0.158722 35.4205 0.525084 35.4945 1.0338L35.6053 1.79483Z" fill="#FAB550"/>
<path fill-rule="evenodd" clip-rule="evenodd" d="M35.6053 1.79467L35.4945 1.03364C35.4584 0.785797 35.2977 0.571957 35.066 0.424171C35.222 0.317361 35.3406 0.177763 35.3989 0.0257182C35.4085 -0.000350899 35.37 -0.0100075 35.3546 0.0129039C35.2802 0.133262 35.1788 0.241541 35.0568 0.333444C35.0918 0.251968 35.1116 0.167005 35.1131 0.0820788C35.1131 0.0549817 35.0727 0.0536598 35.0659 0.0789212C35.0441 0.176515 35.0049 0.270511 34.9515 0.359182C34.7251 0.246314 34.4483 0.190578 34.1591 0.215325L32.3213 0.372657C31.1707 0.471169 30.9248 1.08765 30.9248 1.08765C30.9646 1.06433 31.0494 1.0709 31.177 1.09011C31.1762 1.09169 31.1753 1.09319 31.1746 1.09477C31.6808 1.17015 32.6113 1.34496 33.5134 1.16351C33.2266 1.27828 32.8994 1.33082 32.5733 1.31059C32.5333 1.30909 32.5256 1.33949 32.5662 1.3465C32.8072 1.38641 33.065 1.37246 33.3008 1.31059C33.4745 1.26517 33.6366 1.19321 33.7734 1.10072C33.7992 1.09334 33.8249 1.08589 33.8506 1.07784C33.9779 1.95222 34.5261 2.20943 35.1053 2.15986C35.282 2.14473 35.4597 2.05224 35.6123 1.90875C35.6124 1.87064 35.6108 1.8326 35.6053 1.79467" fill="#7B68F5"/>
<path fill-rule="evenodd" clip-rule="evenodd" d="M35.8331 2.08059C35.9387 2.29994 35.7924 2.54341 35.5063 2.62441C35.2203 2.70541 34.6792 2.65224 34.5736 2.43289C34.468 2.21351 34.8378 1.91103 35.1239 1.83004C35.4099 1.74904 35.7275 1.86121 35.8331 2.08059" fill="#FAB550"/>
<path fill-rule="evenodd" clip-rule="evenodd" d="M47.1138 16.9286L46.0562 11.1922C46.0325 10.9552 45.9324 10.7131 45.7503 10.5004L45.7176 10.4622L42.5808 6.78287C41.9704 6.02701 40.8765 5.57616 39.7835 5.27927L37.8079 4.65894V4.65897C37.4186 6.79421 38.1517 8.96059 39.8458 10.6813L41.7714 12.6373L43.2272 17.311C43.2541 17.4295 43.383 17.5154 43.5339 17.5237L43.7893 18.6507L46.9977 18.3557L46.8868 17.1912C47.0289 17.1543 47.1251 17.0475 47.1138 16.9286" fill="#F2D9DD"/>
<path fill-rule="evenodd" clip-rule="evenodd" d="M38.7092 9.25098L40.1667 12.0795C40.1754 11.7397 40.207 11.4135 40.2561 11.1001L40.2563 11.0986L38.7092 9.25098Z" fill="#442255"/>
<path fill-rule="evenodd" clip-rule="evenodd" d="M27.5111 19.9885C27.0839 19.7322 26.6056 19.5181 26.0891 19.3756C25.5735 19.2328 25.0206 19.165 24.4764 19.1847C24.3994 19.1878 24.4009 19.2395 24.4763 19.2441C25.0113 19.2636 25.5367 19.3481 26.037 19.4865C26.5379 19.6249 27.0139 19.8153 27.4658 20.0375C27.5429 20.0735 27.5826 20.0323 27.5111 19.9885" fill="#442255"/>
<path fill-rule="evenodd" clip-rule="evenodd" d="M46.7185 20.7246C46.8149 21.0176 46.938 21.2991 47.0915 21.5774C47.1037 21.5968 47.1687 21.5831 47.166 21.5616C47.1099 21.2603 46.9828 20.9691 46.7914 20.7026C46.7739 20.6806 46.7119 20.6995 46.7185 20.7246" fill="#442255"/>
<path fill-rule="evenodd" clip-rule="evenodd" d="M47.3625 20.2992C47.4258 20.5171 47.4783 20.7229 47.5264 20.9432C47.5313 20.9586 47.5986 20.96 47.6038 20.9438C47.6592 20.716 47.5972 20.4715 47.4347 20.2761C47.4198 20.26 47.3586 20.2805 47.3625 20.2992" fill="#442255"/>
<path fill-rule="evenodd" clip-rule="evenodd" d="M47.7797 20.2699C47.7743 20.1837 47.7468 20.0981 47.7005 20.0192C47.6913 20.0061 47.6259 20.0164 47.6236 20.0308C47.6198 20.1153 47.6208 20.1955 47.6261 20.276C47.6315 20.3563 47.6425 20.4389 47.6663 20.5225C47.671 20.5343 47.7384 20.5351 47.7436 20.5234C47.7706 20.4406 47.7853 20.3562 47.7797 20.2699" fill="#442255"/>
<path fill-rule="evenodd" clip-rule="evenodd" d="M45.6899 21.0524C45.5136 20.8038 45.3501 20.5504 45.206 20.2887C45.1839 20.2523 45.1199 20.2683 45.1328 20.3079C45.2305 20.5861 45.375 20.8551 45.5547 21.1086C45.6019 21.1752 45.6514 21.2407 45.7032 21.3051C45.7333 21.4031 45.753 21.5012 45.7463 21.5921C45.7416 21.6494 45.7236 21.7019 45.6862 21.7466C45.667 21.7687 45.6428 21.7889 45.6143 21.8074C45.5845 21.8244 45.5523 21.8418 45.5153 21.8544C45.4919 21.8647 45.5068 21.9147 45.5382 21.9118C45.5839 21.9073 45.6289 21.8953 45.6732 21.8799C45.7166 21.8629 45.7578 21.8398 45.7922 21.8108C45.8611 21.7518 45.8944 21.673 45.8998 21.5998C45.9016 21.5763 45.9006 21.5532 45.8983 21.5303C45.9914 21.6299 46.0905 21.7264 46.197 21.8182C46.2412 21.8536 46.2922 21.8206 46.2585 21.781C46.0527 21.5459 45.8662 21.3006 45.6899 21.0524" fill="#442255"/>
<path fill-rule="evenodd" clip-rule="evenodd" d="M34.8857 2.31959C34.8811 2.33492 34.9433 2.35484 34.9557 2.34483C35.0283 2.2709 35.1138 2.21638 35.211 2.17819C35.2603 2.19943 35.303 2.22145 35.345 2.24368C35.3954 2.27105 35.4456 2.2986 35.4984 2.33558C35.5086 2.34101 35.5696 2.32017 35.5684 2.30869C35.555 2.2443 35.5038 2.1845 35.4329 2.14701C35.4188 2.13941 35.4037 2.13296 35.3881 2.1272C35.4434 2.11784 35.5046 2.11131 35.5548 2.11971C35.5706 2.12085 35.6142 2.08112 35.5908 2.06644C35.3101 1.94519 34.9496 2.10375 34.8857 2.31959" fill="#442255"/>
<path fill-rule="evenodd" clip-rule="evenodd" d="M34.5824 17.2388C34.3536 17.8979 34.1741 18.5667 34.0446 19.2414C34.0368 19.2893 34.1027 19.2997 34.1203 19.2534C34.3493 18.5943 34.5293 17.9256 34.6591 17.2509C34.6685 17.1939 34.6031 17.1836 34.5824 17.2388" fill="#442255"/>
<path fill-rule="evenodd" clip-rule="evenodd" d="M32.4889 1.86091C32.5866 1.85688 32.6731 1.86054 32.7599 1.86923C32.8467 1.87774 32.9378 1.8923 33.0375 1.90396C33.1005 1.91236 33.1159 1.87943 33.0683 1.84881C32.9866 1.80107 32.8898 1.7633 32.7797 1.75245C32.6703 1.74101 32.555 1.76092 32.4653 1.80452C32.4225 1.8201 32.4362 1.87121 32.4889 1.86091" fill="#442255"/>
<path fill-rule="evenodd" clip-rule="evenodd" d="M31.3906 1.78211C31.3394 1.78057 31.2753 1.7932 31.2332 1.82379C31.191 1.85358 31.1713 1.88926 31.1605 1.9227C31.1431 1.97405 31.2061 1.98872 31.2274 1.9522C31.2513 1.88966 31.4836 1.89431 31.6111 1.91721C31.6631 1.93105 31.6845 1.8961 31.6406 1.86177C31.572 1.82086 31.4951 1.78599 31.3906 1.78211" fill="#442255"/>
<path fill-rule="evenodd" clip-rule="evenodd" d="M31.868 2.77156C31.8767 2.77296 31.8853 2.77395 31.894 2.77479C32.0326 2.78992 32.1748 2.76793 32.2903 2.71469C32.3287 2.69457 32.293 2.65106 32.2564 2.66053C32.1457 2.69042 32.0268 2.69343 31.9189 2.67302C31.9121 2.67184 31.9054 2.67056 31.8989 2.6689C31.8964 2.66817 31.8975 2.66813 31.8964 2.66762C31.8953 2.66681 31.8947 2.66619 31.8943 2.66556C31.8939 2.66417 31.8974 2.66255 31.898 2.66196C31.9202 2.61475 31.9373 2.56613 31.9515 2.517C32.0064 2.32046 31.9878 2.10963 31.8893 1.9256C31.8742 1.89968 31.8104 1.91628 31.8152 1.94246C31.8601 2.12722 31.8506 2.31311 31.801 2.49262C31.788 2.53742 31.7739 2.5821 31.7563 2.62616L31.7295 2.69196C31.726 2.70709 31.7089 2.72714 31.7195 2.73679C31.7231 2.74002 31.7976 2.7568 31.8254 2.76356C31.8388 2.76683 31.8552 2.76958 31.868 2.77156" fill="#442255"/>
<path fill-rule="evenodd" clip-rule="evenodd" d="M32.97 2.9268C32.9919 2.90413 32.9425 2.86964 32.9145 2.88443C32.7547 2.97971 32.5768 3.04784 32.3899 3.09289C32.2027 3.13739 32.0057 3.15867 31.8035 3.14983C31.7749 3.14997 31.7601 3.20035 31.7893 3.20805C31.9957 3.25765 32.2258 3.25571 32.4356 3.20545C32.6456 3.15551 32.8366 3.0573 32.97 2.9268" fill="#442255"/>
<path fill-rule="evenodd" clip-rule="evenodd" d="M32.9802 2.20274C32.9246 2.24797 32.8514 2.26557 32.7916 2.26396C32.7319 2.26166 32.6608 2.23919 32.6105 2.19026C32.5961 2.17628 32.5296 2.18744 32.5375 2.20958C32.5495 2.2973 32.6546 2.37697 32.7847 2.38139C32.915 2.38597 33.0291 2.31391 33.0516 2.22733C33.064 2.19125 33.0021 2.17167 32.9802 2.20274" fill="#442255"/>
<path fill-rule="evenodd" clip-rule="evenodd" d="M31.5509 2.22649C31.4942 2.26067 31.4397 2.28244 31.4073 2.28398C31.3911 2.28504 31.3793 2.28471 31.3636 2.28039C31.3494 2.27538 31.3323 2.26444 31.3243 2.24285C31.3249 2.22451 31.2616 2.20566 31.2484 2.23201C31.2307 2.267 31.2293 2.31475 31.2659 2.35102C31.3016 2.38747 31.3667 2.40639 31.4236 2.40086C31.4814 2.39603 31.5266 2.37246 31.5575 2.34626C31.5897 2.31984 31.6062 2.28866 31.6174 2.25811C31.6357 2.23143 31.5765 2.20738 31.5509 2.22649" fill="#442255"/>
<path fill-rule="evenodd" clip-rule="evenodd" d="M46.7637 17.2423C46.8505 17.2245 46.837 17.1744 46.7482 17.1835C46.2218 17.2458 45.6962 17.3024 45.1684 17.3477C44.6405 17.3932 44.1095 17.4336 43.5809 17.4897C43.5064 17.4985 43.5125 17.55 43.5878 17.5487C44.1203 17.5314 44.6533 17.5106 45.1857 17.4648C45.7181 17.4192 46.2462 17.3428 46.7637 17.2423" fill="#442255"/>
<path fill-rule="evenodd" clip-rule="evenodd" d="M28.3064 18.382C27.4572 18.0719 26.5863 17.7969 25.6985 17.5586C25.6352 17.5427 25.6096 17.5904 25.669 17.6134C26.5181 17.9238 27.3888 18.199 28.2766 18.4376C28.3518 18.4565 28.3772 18.4092 28.3064 18.382" fill="#442255"/>
<path fill-rule="evenodd" clip-rule="evenodd" d="M27.4272 20.3245C27.4094 20.3318 27.388 20.3458 27.3647 20.367C27.097 20.6222 26.8359 20.8783 26.555 21.1216C26.4145 21.2428 26.2709 21.3617 26.119 21.4726C25.9672 21.5827 25.8073 21.6886 25.6323 21.7633C25.5456 21.7999 25.4522 21.8277 25.3679 21.827C25.3265 21.8288 25.281 21.82 25.2488 21.8068C25.2154 21.7933 25.19 21.7736 25.1732 21.7457C25.1377 21.6903 25.1381 21.6118 25.1505 21.537C25.1637 21.461 25.19 21.3844 25.2224 21.3091C25.36 21.0047 25.5271 20.7046 25.7176 20.415C25.8823 20.363 26.0413 20.3006 26.1937 20.227C26.2126 20.2166 26.186 20.1692 26.1631 20.1725C25.8465 20.2344 25.549 20.3323 25.2725 20.4655C25.2498 20.4778 25.2761 20.5248 25.3033 20.5207C25.4055 20.5007 25.5054 20.4765 25.6034 20.449C25.408 20.7136 25.2375 20.9886 25.0952 21.2753C25.058 21.3542 25.0266 21.4356 25.009 21.5214C25.0005 21.5644 24.9955 21.6085 24.9979 21.6542C25.0004 21.6997 25.0101 21.7477 25.0384 21.7944C25.065 21.8413 25.1163 21.8842 25.1772 21.9088C25.2073 21.9217 25.2391 21.9297 25.2705 21.9359C25.2862 21.9385 25.3017 21.9403 25.3174 21.9424C25.3333 21.9436 25.3496 21.9435 25.3657 21.9439C25.4958 21.9445 25.6069 21.9077 25.7059 21.8668C25.9038 21.7821 26.0674 21.6703 26.2226 21.5549C26.3772 21.4387 26.5198 21.3151 26.6576 21.189C26.9322 20.9366 27.1809 20.6689 27.4266 20.4038C27.4472 20.3816 27.4594 20.3636 27.4652 20.3502C27.4705 20.3372 27.4702 20.3284 27.4648 20.3225C27.4599 20.3169 27.4455 20.3169 27.4272 20.3245" fill="#442255"/>
<path fill-rule="evenodd" clip-rule="evenodd" d="M24.1892 20.2721C24.1457 20.4924 24.1528 20.7122 24.2106 20.9305C24.217 20.9488 24.2837 20.9475 24.2889 20.929C24.3321 20.7087 24.3246 20.4889 24.2665 20.2706C24.261 20.2553 24.1936 20.2566 24.1892 20.2721" fill="#442255"/>
<path fill-rule="evenodd" clip-rule="evenodd" d="M35.0799 0.479C34.6475 0.625714 34.2569 0.814619 33.8983 1.05103C33.8719 1.06681 33.8218 1.03232 33.8417 1.0106C34.1336 0.711674 34.5786 0.49606 35.0562 0.421804C35.0968 0.416374 35.1157 0.465463 35.0799 0.479" fill="#442255"/>
</svg>
