<svg width="28" height="27" viewBox="0 0 28 27" fill="none" xmlns="http://www.w3.org/2000/svg">
<path fill-rule="evenodd" clip-rule="evenodd" d="M19.0555 7.02496C19.6311 7.39581 20.3078 7.59375 21 7.59375C21.9279 7.59275 22.8176 7.23684 23.4737 6.60413C24.1299 5.97141 24.499 5.11355 24.5 4.21875C24.5 3.55124 24.2947 2.89872 23.9101 2.3437C23.5256 1.78869 22.9789 1.3561 22.3394 1.10066C21.6999 0.845212 20.9961 0.778376 20.3172 0.908601C19.6383 1.03883 19.0146 1.36026 18.5251 1.83227C18.0356 2.30427 17.7023 2.90564 17.5673 3.56032C17.4322 4.21501 17.5015 4.89361 17.7664 5.51031C18.0313 6.12701 18.4799 6.65411 19.0555 7.02496ZM20.0278 2.81565C20.3155 2.63022 20.6539 2.53125 21 2.53125C21.464 2.53172 21.9088 2.70966 22.2369 3.02603C22.565 3.34239 22.7495 3.77134 22.75 4.21875C22.75 4.55251 22.6474 4.87877 22.4551 5.15628C22.2628 5.43378 21.9895 5.65008 21.6697 5.7778C21.3499 5.90552 20.9981 5.93894 20.6586 5.87383C20.3191 5.80871 20.0073 5.648 19.7626 5.41199C19.5178 5.17599 19.3512 4.87531 19.2836 4.54797C19.2161 4.22062 19.2508 3.88132 19.3832 3.57297C19.5157 3.26462 19.74 3.00107 20.0278 2.81565ZM23.625 8.43751H18.6847C18.1597 8.43588 17.6463 8.5868 17.2116 8.8706C16.7768 9.15441 16.4408 9.55793 16.2473 10.0286L14.9856 13.0707L11.8287 16.876L13.1955 17.9299L16.433 14.0275L17.8724 10.6558C17.9367 10.4988 18.0487 10.3642 18.1936 10.2695C18.3385 10.1748 18.5097 10.1245 18.6847 10.125H23.625C23.857 10.1252 24.0794 10.2142 24.2434 10.3724C24.4075 10.5306 24.4998 10.745 24.5 10.9688V16.875H21.875V25.3125H23.625V18.5625H24.5C24.9639 18.562 25.4087 18.384 25.7368 18.0677C26.0649 17.7513 26.2494 17.3224 26.25 16.875V10.9688C26.2492 10.2977 25.9724 9.65425 25.4803 9.17971C24.9882 8.70517 24.3209 8.43825 23.625 8.43751ZM4.39803 17.6965C4.97216 18.2502 5.75057 18.5616 6.5625 18.5625C7.37443 18.5616 8.15284 18.2502 8.72697 17.6965C9.30109 17.1429 9.62405 16.3923 9.625 15.6094V14.3438H11.375V12.6562H7.875V15.6094C7.875 15.945 7.73672 16.267 7.49058 16.5043C7.24444 16.7417 6.9106 16.875 6.5625 16.875C6.2144 16.875 5.88056 16.7417 5.63442 16.5043C5.38828 16.267 5.25 15.945 5.25 15.6094V12.6562H1.75V14.3438H3.5V15.6094C3.50095 16.3923 3.82391 17.1429 4.39803 17.6965ZM17.5 16.875H19.25V25.3125H17.5V16.875ZM3.5 19.4062H5.25V25.3125H3.5V19.4062ZM14 25.3125H12.25V21.9375C12.2497 21.7138 12.1575 21.4993 11.9934 21.3412C11.8294 21.183 11.607 21.094 11.375 21.0938H9.625V25.3125H7.875V19.4062H11.375C12.071 19.407 12.7382 19.6739 13.2303 20.1485C13.7224 20.623 13.9992 21.2664 14 21.9375V25.3125Z" fill="black"/>
</svg>
